HIERARCHY
ROOT Hips
{
	OFFSET -0.0000 -0.0000 0.0000
	CHANNELS 6 Xposition Yposition Zposition Zrotation Xrotation Yrotation
	JOINT LeftUpperLeg
	{
		OFFSET -5.2299 2.7607 -9.3936
		CHANNELS 3 Zrotation Xrotation Yrotation
		JOINT LeftLowerLeg
		{
			OFFSET -5.8867 0.6557 -41.6441
			CHANNELS 3 Zrotation Xrotation Yrotation
			JOINT LeftFoot
			{
				OFFSET 4.1738 2.9512 -43.7584
				CHANNELS 3 Zrotation Xrotation Yrotation
				JOINT LeftToe
				{
					OFFSET -4.9294 -12.6259 -6.5279
					CHANNELS 3 Zrotation Xrotation Yrotation
					End Site
					{
						OFFSET 0.0000 0.0000 5.0000
					}
				}
			}
		}
	}
	JOINT RightUpperLeg
	{
		OFFSET 5.7193 2.2218 -10.6548
		CHANNELS 3 Zrotation Xrotation Yrotation
		JOINT RightLowerLeg
		{
			OFFSET 4.8074 1.4061 -39.7560
			CHANNELS 3 Zrotation Xrotation Yrotation
			JOINT RightFoot
			{
				OFFSET -1.4489 1.8030 -44.6852
				CHANNELS 3 Zrotation Xrotation Yrotation
				JOINT RightToe
				{
					OFFSET 4.0575 -12.7076 -6.5287
					CHANNELS 3 Zrotation Xrotation Yrotation
					End Site
					{
						OFFSET 0.0000 0.0000 5.0000
					}
				}
			}
		}
	}
	JOINT Spine
	{
		OFFSET -0.0000 -0.0000 11.2930
		CHANNELS 3 Zrotation Xrotation Yrotation
		JOINT Spine1
		{
			OFFSET -0.0000 -0.0000 14.5636
			CHANNELS 3 Zrotation Xrotation Yrotation
			JOINT Spine2
			{
				OFFSET -0.0000 -0.0000 5.6082
				CHANNELS 3 Zrotation Xrotation Yrotation
				JOINT Neck
				{
					OFFSET -0.0000 -0.0000 17.1365
					CHANNELS 3 Zrotation Xrotation Yrotation
					JOINT Head
					{
						OFFSET -2.4654 -2.4463 17.5391
						CHANNELS 3 Zrotation Xrotation Yrotation
						End Site
						{
							OFFSET 0.0000 0.0000 5.0000
						}
					}
				}
				JOINT LeftShoulder
				{
					OFFSET -4.7725 0.8375 8.7643
					CHANNELS 3 Zrotation Xrotation Yrotation
					JOINT LeftUpperArm
					{
						OFFSET -12.6285 1.3885 5.7680
						CHANNELS 3 Zrotation Xrotation Yrotation
						JOINT LeftLowerArm
						{
							OFFSET -27.2907 3.9094 -6.9853
							CHANNELS 3 Zrotation Xrotation Yrotation
							JOINT LeftHand
							{
								OFFSET -27.6174 0.2478 2.1254
								CHANNELS 3 Zrotation Xrotation Yrotation
								End Site
								{
									OFFSET 0.0000 0.0000 5.0000
								}
							}
						}
					}
				}
				JOINT RightShoulder
				{
					OFFSET 4.6636 1.4864 8.6612
					CHANNELS 3 Zrotation Xrotation Yrotation
					JOINT RightUpperArm
					{
						OFFSET 10.9342 0.9118 5.3674
						CHANNELS 3 Zrotation Xrotation Yrotation
						JOINT RightLowerArm
						{
							OFFSET 29.2029 2.4565 -3.5440
							CHANNELS 3 Zrotation Xrotation Yrotation
							JOINT RightHand
							{
								OFFSET 27.1879 1.6445 -0.4835
								CHANNELS 3 Zrotation Xrotation Yrotation
								End Site
								{
									OFFSET 0.0000 0.0000 5.0000
								}
							}
						}
					}
				}
			}
		}
	}
}
MOTION
Frames: 14
Frame Time: 0.033333
3.091975 2.879253 99.326302 4.071396 -3.985731 7.927388 9.259664 15.160922 -12.595376 -2.031018 1.702762 -3.238816 2.344559 -6.573850 7.126277 0.476612 -0.421558 -10.967995 -2.614320 -29.046428 -10.882158 -2.001287 3.224513 1.604744 7.631084 12.113334 17.130109 -7.005868 -7.518874 -2.381259 6.420470 16.522001 -21.265821 7.418370 -3.022476 13.830678 -3.858644 8.049619 -4.591853 -2.164146 -14.677080 2.444607 0.547708 1.147634 1.138392 7.891125 1.601208 2.029416 14.545014 -13.367118 -60.511552 22.680370 -5.159840 -5.831572 3.991639 -1.215617 -6.034550 -1.603145 -1.457192 2.115227 -33.899058 0.100025 68.311275 -26.485279 -2.078966 2.886640 -0.906505 -17.428324 6.112259
3.888584 -0.649342 98.521301 3.210400 -3.869295 7.916343 9.498601 17.857901 -12.383888 -1.763201 1.109287 -3.020430 2.885656 -7.702033 6.960151 0.707876 -0.725358 -11.255503 -3.061694 -29.975283 -10.690960 -2.030353 5.526871 2.035418 7.358645 10.686699 15.987499 -6.929654 -7.449003 -2.486167 6.118257 16.975668 -21.119225 7.585127 -3.176586 14.238212 -3.987233 7.895961 -5.067060 -1.945322 -15.312369 3.074583 0.993466 0.964283 1.053028 7.653207 1.866542 1.830867 15.525526 -13.760043 -60.227195 21.869876 -4.672133 -5.489887 4.511257 -0.125089 -6.658918 -1.789412 -1.448772 2.963631 -34.698111 0.204524 68.172186 -25.034245 -1.877144 2.776303 -0.872341 -18.130795 5.874241
4.856150 -4.456409 97.852081 2.207254 -3.319274 6.825804 8.880969 20.234072 -10.614195 -1.462980 1.151318 -2.538620 3.957323 -8.337704 5.681944 1.011500 -2.048164 -10.744552 -3.935767 -30.825819 -9.579756 -2.072285 9.054632 2.525503 6.225778 13.228061 13.662914 -6.851488 -7.618609 -3.646931 5.466997 16.827722 -19.084600 7.398853 -3.247888 13.678009 -3.904825 7.794873 -5.201645 -1.416565 -16.537801 3.689372 1.479263 0.947671 0.557737 7.644817 1.949408 0.382195 16.082648 -13.655896 -59.283716 21.146588 -4.064081 -5.138973 5.081918 0.558806 -7.270996 -1.889486 -1.641523 4.820137 -35.152904 0.802077 67.214761 -22.995399 -1.162036 2.502775 0.243815 -17.858958 6.007372
5.940033 -8.632761 97.632637 1.153019 -2.201120 4.684345 7.590497 22.423308 -7.574936 -0.977767 1.083410 -1.465083 4.734570 -6.384207 2.640900 1.501882 -4.950225 -9.690098 -4.948772 -31.912470 -7.438781 -1.875114 11.615563 2.630811 5.800115 19.393443 11.206035 -6.217422 -7.649528 -4.963765 4.651893 15.840522 -15.348735 7.068623 -3.356870 12.268628 -3.935455 7.822554 -4.791468 -0.789888 -17.960357 3.862702 1.701117 0.921633 -0.064079 7.920938 1.600847 -1.672358 16.099149 -12.656011 -58.346644 20.662852 -3.549136 -4.928015 5.315732 1.211658 -7.329378 -2.069167 -2.149446 6.828843 -35.121985 1.842178 66.133969 -20.648597 -0.324020 2.328383 2.007157 -17.635743 6.727935
6.944296 -12.886064 97.652855 0.448477 -1.130511 2.666553 6.582765 24.120043 -5.029395 -0.383617 1.612037 -0.122246 4.669392 -1.755621 -0.921991 2.335939 -9.685132 -8.695934 -5.336936 -32.663324 -5.240895 -1.556626 14.118912 2.715583 5.811399 23.282634 9.866904 -5.407998 -7.133524 -5.842643 4.052784 14.688796 -11.765718 6.701084 -3.852182 10.873177 -3.958221 8.049345 -4.113081 -0.543473 -18.998834 3.562820 1.830661 0.787326 -0.609643 7.785276 1.282237 -2.491602 15.882545 -11.352101 -59.037882 20.241204 -3.390700 -5.048628 5.250505 1.716771 -7.371272 -2.165996 -2.680581 7.185683 -35.986163 2.621459 65.985981 -18.761274 -0.029500 2.419655 3.637669 -17.054467 7.535486
7.843472 -17.163961 98.010345 0.303878 -0.308087 1.038720 6.032374 23.056183 -2.820642 0.059031 6.259875 0.293284 3.446048 5.148241 -3.612867 3.621794 -16.691385 -8.114206 -4.996025 -32.795571 -3.036617 -1.154077 16.685495 2.926219 5.715363 23.655205 8.886737 -4.632397 -5.927629 -6.336101 3.716289 13.681411 -8.687108 6.159377 -4.753929 9.355625 -4.042471 8.526129 -3.184215 -0.514944 -19.799562 3.021947 1.824837 1.006596 -0.783918 7.431697 0.779557 -2.354455 15.470039 -9.731751 -60.963329 19.689285 -3.354685 -5.301586 4.518833 1.767701 -7.616541 -2.190314 -3.229872 6.196634 -37.425042 2.996483 66.596580 -17.853547 0.167344 2.801124 4.704940 -16.080163 8.101696
8.671359 -21.351545 98.519501 0.629795 0.331451 -0.367810 5.310679 19.437201 -0.564786 0.594924 14.259201 -0.081582 2.352596 15.094420 -5.693372 5.100748 -23.960505 -7.276902 -4.273059 -32.299091 -0.828548 -0.712111 19.070849 3.276439 5.011265 20.932588 8.026349 -4.173402 -4.484891 -6.587087 3.516537 12.716869 -5.668216 4.920115 -5.640933 7.382292 -3.664133 8.993857 -2.142909 -1.097554 -20.284364 2.418298 1.855186 1.324029 -0.747749 6.917040 0.173141 -2.015337 14.868469 -7.958112 -63.183174 19.080513 -3.212391 -5.426302 3.525118 0.616607 -7.504520 -2.415319 -3.615235 4.701230 -38.827089 2.909073 67.106030 -17.893012 0.137287 3.259790 5.491416 -15.076238 8.266357
9.321815 -25.340084 99.108994 1.163009 0.822613 -1.541206 4.972505 13.318226 1.513705 0.874447 25.129724 -0.822960 1.363227 26.051566 -8.352380 5.533374 -22.580643 -6.137495 -3.361861 -31.072580 1.245354 -0.279379 20.801134 3.578764 4.109170 16.134316 6.737476 -4.042064 -3.916829 -6.284765 3.451106 11.985671 -2.633692 3.205206 -6.585949 4.784855 -3.216051 9.736629 -1.013378 -1.515684 -20.832232 1.904925 1.407914 1.279765 -0.485356 6.710132 -0.442949 -2.061760 14.335750 -6.458431 -64.643755 18.343269 -3.001317 -5.478674 2.287388 -0.332894 -7.454836 -2.634912 -3.933216 3.504835 -40.095609 2.585471 66.981091 -18.626190 0.251446 3.449226 5.568916 -14.264707 8.187193
9.826236 -28.973848 99.608688 1.866919 1.267236 -2.702295 5.285762 5.564477 3.323786 0.831030 37.033270 -1.122863 1.506083 35.201686 -12.538393 2.443454 -9.816971 -4.601573 -2.387765 -29.374501 3.273944 0.288808 21.351625 3.614256 2.742220 12.317041 5.866790 -3.940581 -3.598026 -5.703422 2.979434 11.435831 0.639579 1.679214 -7.289892 1.877657 -2.902466 10.650836 -0.096589 -1.817303 -21.446494 1.822735 1.173470 0.872119 -0.491282 6.629444 -1.037870 -1.972481 13.946177 -5.524208 -65.620783 17.851375 -2.680028 -5.618125 1.431088 -1.568330 -7.560019 -2.996092 -4.250847 2.783249 -41.327949 2.135450 66.049865 -19.897452 0.431256 3.477926 5.348248 -13.971025 7.813552
10.287968 -32.339611 100.107399 3.009091 1.445379 -3.902062 5.252844 -2.387830 5.156503 2.403371 48.005736 -2.822041 0.802842 34.672714 -12.885634 1.272174 -5.907758 -4.196593 -2.223378 -27.137035 5.197396 0.929865 21.013871 3.432210 1.611783 9.477853 5.170454 -3.721457 -3.186997 -4.815161 1.816893 11.135116 3.862235 0.250406 -7.454404 -1.022121 -2.478726 11.137742 0.642588 -2.222095 -21.555580 1.925963 1.455071 -0.134163 -0.678100 6.413626 -1.331096 -1.863321 13.967419 -5.071518 -66.167447 17.705971 -2.305290 -5.812089 1.295934 -2.865822 -7.607972 -3.224205 -4.431010 2.546908 -42.803079 1.530085 64.386222 -21.146755 0.625157 3.383007 4.945673 -14.154686 7.001666
10.812817 -35.611675 100.718033 4.430390 1.131932 -4.912195 4.546197 -9.845869 6.975627 4.856839 55.346675 -5.505756 -1.278954 31.080713 -10.592973 1.692564 -6.486821 -3.955729 -2.949884 -23.836206 6.815490 1.643851 19.445996 3.098755 0.736771 7.501135 4.365270 -3.542877 -2.828030 -3.783749 0.200134 11.144103 6.626012 -0.900275 -7.031463 -3.728184 -2.131148 11.121643 1.283312 -2.556069 -21.203041 2.054567 1.993777 -0.601181 -0.788742 6.244406 -1.423839 -1.801286 14.337713 -4.675230 -66.316111 18.049932 -2.084585 -5.952427 1.728152 -3.614686 -7.351066 -3.299469 -4.366156 2.529983 -44.349214 0.453138 62.451615 -21.781830 0.691801 3.190865 4.592245 -13.779491 6.068193
11.425058 -38.991718 101.314056 5.984131 0.411255 -5.732999 3.063808 -16.399412 8.649321 6.575541 58.238005 -7.285264 -3.055981 28.695967 -8.411746 2.114057 -7.137249 -3.597020 -4.231615 -19.677236 8.243492 2.367147 17.091630 2.706989 -0.153099 5.777782 3.385582 -3.393889 -2.570659 -2.576763 -1.662758 11.382634 8.956945 -1.831481 -6.207272 -6.106177 -1.753046 10.669245 1.758746 -2.993449 -20.495716 2.082991 2.702569 -0.631879 -0.790674 6.053481 -1.347305 -1.690806 14.731031 -4.119195 -66.318072 18.984238 -2.040673 -6.033336 2.275285 -3.754603 -6.945190 -3.491207 -4.263563 2.213912 -45.539622 -1.023280 60.931213 -22.190099 0.581424 2.995309 4.129008 -12.770121 5.334096
12.066553 -42.481529 101.773621 7.609995 -0.529276 -6.495517 0.999708 -21.929844 10.177750 6.878710 57.445736 -7.358745 -3.841222 26.927008 -7.225425 2.511776 -7.807873 -3.065495 -5.830927 -15.111095 9.661572 2.995090 14.381612 2.320639 -1.088045 4.154363 2.201568 -3.225783 -2.417888 -1.191925 -3.578798 11.768128 11.134219 -2.694550 -5.141030 -8.278864 -1.287800 9.883092 2.103889 -3.472237 -19.660575 2.040466 3.461286 -0.586003 -0.731308 5.812039 -1.109067 -1.643512 14.993402 -3.427329 -66.122174 20.354711 -2.112486 -6.120170 2.683393 -3.529767 -6.534429 -3.795733 -4.177955 1.671500 -46.196005 -2.603248 59.850918 -22.951037 0.378345 2.817205 3.442256 -11.773293 4.682381
12.668450 -45.916260 102.071693 9.236957 -1.575865 -7.170097 -1.157858 -26.177591 11.390282 6.030410 53.601219 -6.095407 -3.847156 25.061404 -7.053815 2.940039 -8.482564 -2.315274 -7.569901 -10.499549 11.007422 3.480249 11.596472 1.990872 -2.073859 2.780178 0.943675 -3.043636 -2.343939 0.296119 -5.323922 12.320215 13.155736 -3.491709 -3.996124 -10.221306 -0.774288 8.913642 2.321536 -4.020030 -18.829924 1.887099 4.027074 -0.663007 -0.641394 5.533841 -0.793099 -1.790884 15.094591 -2.664175 -65.690263 21.758570 -2.239802 -6.219903 2.949595 -3.037687 -6.188239 -4.121104 -4.057341 1.157563 -46.710770 -4.027405 59.000641 -24.155477 0.102835 2.559803 2.547782 -11.357593 4.025576
